<svg id="visual" viewBox="0 0 1920 1080" width="1920" height="1080" xmlns="http://www.w3.org/2000/svg" xmlns:xlink="http://www.w3.org/1999/xlink" version="1.1"><rect x="0" y="0" width="1920" height="1080" fill="#FFFFFF"></rect><defs><linearGradient id="grad1_0" x1="43.8%" y1="0%" x2="100%" y2="100%"><stop offset="14.444444444444446%" stop-color="#f7770f" stop-opacity="1"></stop><stop offset="85.55555555555554%" stop-color="#f7770f" stop-opacity="1"></stop></linearGradient></defs><defs><linearGradient id="grad1_1" x1="43.8%" y1="0%" x2="100%" y2="100%"><stop offset="14.444444444444446%" stop-color="#f7770f" stop-opacity="1"></stop><stop offset="85.55555555555554%" stop-color="#ffa567" stop-opacity="1"></stop></linearGradient></defs><defs><linearGradient id="grad1_2" x1="43.8%" y1="0%" x2="100%" y2="100%"><stop offset="14.444444444444446%" stop-color="#ffd2b2" stop-opacity="1"></stop><stop offset="85.55555555555554%" stop-color="#ffa567" stop-opacity="1"></stop></linearGradient></defs><defs><linearGradient id="grad1_3" x1="43.8%" y1="0%" x2="100%" y2="100%"><stop offset="14.444444444444446%" stop-color="#ffd2b2" stop-opacity="1"></stop><stop offset="85.55555555555554%" stop-color="#ffffff" stop-opacity="1"></stop></linearGradient></defs><defs><linearGradient id="grad2_0" x1="0%" y1="0%" x2="56.3%" y2="100%"><stop offset="14.444444444444446%" stop-color="#f7770f" stop-opacity="1"></stop><stop offset="85.55555555555554%" stop-color="#f7770f" stop-opacity="1"></stop></linearGradient></defs><defs><linearGradient id="grad2_1" x1="0%" y1="0%" x2="56.3%" y2="100%"><stop offset="14.444444444444446%" stop-color="#ffa567" stop-opacity="1"></stop><stop offset="85.55555555555554%" stop-color="#f7770f" stop-opacity="1"></stop></linearGradient></defs><defs><linearGradient id="grad2_2" x1="0%" y1="0%" x2="56.3%" y2="100%"><stop offset="14.444444444444446%" stop-color="#ffa567" stop-opacity="1"></stop><stop offset="85.55555555555554%" stop-color="#ffd2b2" stop-opacity="1"></stop></linearGradient></defs><defs><linearGradient id="grad2_3" x1="0%" y1="0%" x2="56.3%" y2="100%"><stop offset="14.444444444444446%" stop-color="#ffffff" stop-opacity="1"></stop><stop offset="85.55555555555554%" stop-color="#ffd2b2" stop-opacity="1"></stop></linearGradient></defs><g transform="translate(1920, 0)"><path d="M0 864C-120.1 859.7 -240.2 855.3 -330.6 798.2C-421.1 741.2 -482 631.3 -541.6 541.6C-601.3 451.9 -659.7 382.4 -713.2 295.4C-766.8 208.5 -815.4 104.3 -864 0L0 0Z" fill="#ffe8d8"></path><path d="M0 648C-90.1 644.7 -180.1 641.5 -248 598.7C-315.8 555.9 -361.5 473.5 -406.2 406.2C-451 339 -494.8 286.8 -534.9 221.6C-575.1 156.4 -611.5 78.2 -648 0L0 0Z" fill="#ffbb8c"></path><path d="M0 432C-60 429.8 -120.1 427.7 -165.3 399.1C-210.6 370.6 -241 315.7 -270.8 270.8C-300.6 226 -329.9 191.2 -356.6 147.7C-383.4 104.3 -407.7 52.1 -432 0L0 0Z" fill="#ff8e41"></path><path d="M0 216C-30 214.9 -60 213.8 -82.7 199.6C-105.3 185.3 -120.5 157.8 -135.4 135.4C-150.3 113 -164.9 95.6 -178.3 73.9C-191.7 52.1 -203.8 26.1 -216 0L0 0Z" fill="#f7770f"></path></g><g transform="translate(0, 1080)"><path d="M0 -864C111.7 -851.9 223.4 -839.8 330.6 -798.2C437.9 -756.6 540.8 -685.5 592.6 -592.6C644.4 -499.6 645.1 -384.8 681.8 -282.4C718.6 -180 791.3 -90 864 0L0 0Z" fill="#ffe8d8"></path><path d="M0 -648C83.8 -638.9 167.5 -629.9 248 -598.7C328.4 -567.5 405.6 -514.1 444.4 -444.4C483.3 -374.7 483.8 -288.6 511.4 -211.8C538.9 -135 593.5 -67.5 648 0L0 0Z" fill="#ffbb8c"></path><path d="M0 -432C55.8 -426 111.7 -419.9 165.3 -399.1C219 -378.3 270.4 -342.8 296.3 -296.3C322.2 -249.8 322.5 -192.4 340.9 -141.2C359.3 -90 395.6 -45 432 0L0 0Z" fill="#ff8e41"></path><path d="M0 -216C27.9 -213 55.8 -210 82.7 -199.6C109.5 -189.2 135.2 -171.4 148.1 -148.1C161.1 -124.9 161.3 -96.2 170.5 -70.6C179.6 -45 197.8 -22.5 216 0L0 0Z" fill="#f7770f"></path></g></svg>